<svg width="84" height="70" viewBox="0 0 84 70" fill="none" xmlns="http://www.w3.org/2000/svg">
<path d="M40.0148 0.999997C40.2148 0.599996 41.4148 0.399999 42.8148 0.599996C46.6148 0.999997 46.0148 3.4 51.8148 13.5C60.4148 28.8 74.9148 57.9 77.2148 60.8C77.7148 61.4 79.0148 61.9 80.2148 62.1C82.0149 62.3 82.5149 62.8 82.7148 64.9C83.2148 69.9 78.7148 68 67.5148 67.7C64.8148 67.7 64.0148 67.3 63.6148 66C62.8148 63.6 64.6148 61.9 67.8148 61.9C71.1148 61.9 71.7148 61 69.9148 58.5C69.1148 57.5 67.4148 54.4 66.0148 51.7L60.6148 41.3L46.4148 14.6C44.7148 11.3 43.0148 8.59999 42.6148 8.59999C41.6148 8.59999 38.0148 16.5 33.1148 25C28.5148 33.2 19.9148 50.4 17.6148 53C17.0148 53.7 16.4148 54.6 16.4148 55.1C16.4148 55.5 15.6148 56.9 14.7148 58.2L12.9148 60.4L14.8148 61.8C16.1148 62.8 16.5148 63.9 16.3148 65.6C16.0148 68 16.0148 68.1 10.7148 68.2C7.81484 68.2 4.21484 68.1 2.71484 67.9C0.214844 67.5 0.0148438 67.2 0.214844 64.9C0.414844 62.6 0.814844 62.3 3.21484 62C9.21484 61.5 14.6148 46.7 20.2148 37.3C24.5148 30.2 35.7148 8.1 40.0148 0.999997Z" fill="white"/>
</svg>
