<svg width="83" height="72" viewBox="0 0 83 72" fill="none" xmlns="http://www.w3.org/2000/svg">
<path d="M10.5426 62.3C11.0426 62.3 31.3426 48.3 32.1426 48.3C32.5426 48.3 33.4426 47.6 34.2426 46.7C35.6426 45.1 35.6426 45 34.2426 43.4C33.4426 42.5 32.5426 41.8 32.1426 41.8C31.8426 41.8 28.0426 39.4 23.7426 36.4C17.7426 32.3 15.8426 30.6 15.8426 29.2C15.8426 27.4 20.5426 21.6 32.8426 8.4C37.5426 3.3 40.5426 0.799996 41.7426 0.799996C44.3426 0.799996 67.0426 26.4 67.0426 29.3C67.0426 31.1 65.7426 32.3 59.4426 36.6C55.2426 39.4 51.4426 41.8 51.1426 41.8C50.7426 41.8 49.8426 42.5 49.0426 43.4C47.6426 45 47.6426 45.1 49.0426 46.7C49.8426 47.6 50.8426 48.3 51.1426 48.3C51.9426 48.3 59.0426 53.4 60.7426 54.5L72.3426 62.1L74.8426 58.1C76.3426 55.9 77.7426 54.1 78.0426 54.1C78.3426 54.1 79.4426 54.7 80.4426 55.4C82.9426 57.2 81.7426 56.3 78.1426 63.4C74.7426 69.9 73.9426 69.8 62.2426 61.9C56.5426 58 51.6426 54.9 51.2426 54.9C50.1426 54.9 47.9426 51.6 46.5426 51.6C45.2426 51.6 43.0426 48.3 41.6426 48.3C40.2426 48.3 37.9426 51.6 37.0426 51.6C36.7426 51.6 34.8426 52.6 32.8426 53.9L14.7426 66.1C7.44258 71.1 7.04258 66.6 1.84258 58.3C0.742578 56.6 0.842578 56.3 2.24258 55.3C4.74258 53.4 5.54258 53.8 7.94258 58.2C9.14258 60.5 10.3426 62.3 10.5426 62.3ZM57.3426 24.1C53.1426 20 41.8426 7.3 41.2426 7.3C40.7426 7.3 22.8426 27.6 22.5426 28.6C22.4426 29 23.6426 30.2 25.3426 31.2L29.7426 34C31.6426 35.2 36.8426 38.1 39.3426 40.4L41.1426 42L54.1426 33.5C56.1426 32.1 57.9426 31.1 58.3426 31.1C58.6426 31.1 59.3426 30.7 59.8426 30.2C60.9426 29.1 60.0426 26.8 57.3426 24.1Z" fill="white"/>
</svg>
