<svg width="47" height="64" viewBox="0 0 47 64" fill="none" xmlns="http://www.w3.org/2000/svg">
<path d="M0.134766 3.89999C0.134766 3.1 2.63477 0.199995 3.23477 0.199995C4.43477 0.199995 19.5348 20.3 21.0348 18.9C21.4348 18.5 21.7348 14.6 21.7348 10.2L21.8348 2.3H26.7348L26.9348 10.7C27.1348 15.3 27.4348 19.1 27.8348 19.1C28.7348 19.1 37.4348 6.19999 41.4348 2.49999C43.7348 0.399998 43.9348 0.299999 45.3348 1.59999C46.1348 2.4 46.8348 3.2 46.8348 3.49999C46.8348 3.8 44.7348 6.6 42.3348 9.8L27.5348 28.5L26.7348 63.8H21.8348L21.0348 28.1L15.1348 21.7C7.53477 13.4 0.134766 4.6 0.134766 3.89999Z" fill="white"/>
</svg>
