<svg width="310" height="73" viewBox="0 0 310 73" fill="none" xmlns="http://www.w3.org/2000/svg">
<g clip-path="url(#clip0_503_107)">
<path d="M106.372 36.5013C106.372 39.3305 105.645 42.1596 104.188 44.6832L92.5634 64.8209C91.0923 67.3699 88.9761 69.4324 86.4921 70.8498C82.9585 72.8641 80.0926 71.2204 80.0926 67.1549C80.0926 65.2934 83.5158 61.259 84.2344 60.0114L95.8593 39.8736C97.0617 37.7942 97.0617 35.2112 95.8593 33.1318L84.2344 12.9941C83.513 11.7465 80.0926 7.71212 80.0926 5.85055C80.0926 1.7851 82.9613 0.144195 86.4921 2.15571C88.9761 3.5731 91.0922 5.63271 92.5634 8.18458L104.188 28.3223C105.645 30.8459 106.372 33.675 106.372 36.5042L106.372 36.5013Z" fill="#FFA63D"/>
<path d="M79.2155 36.5014C79.2155 39.3305 78.4884 42.1597 77.0314 44.6833L65.4065 64.821C62.4897 69.8653 57.0606 73 51.2326 73L27.98 73C22.152 73 16.7229 69.8653 13.8089 64.8182L2.18399 44.6804C-0.730013 39.6333 -0.730013 33.3639 2.18399 28.3167L13.8089 8.17902C16.7229 3.13185 22.152 -0.00282384 27.98 -0.0028241L51.2326 -0.00282512C57.0606 -0.00282537 62.4897 3.13185 65.4037 8.17901L77.0286 28.3167C78.4856 30.8403 79.2127 33.6695 79.2127 36.4986L79.2155 36.5014ZM9.61328 36.5014C9.61328 37.667 9.91317 38.8326 10.5129 39.8737L22.1407 60.0115C23.3402 62.0909 25.5781 63.3838 27.98 63.3838L51.2326 63.3838C53.6345 63.3838 55.8724 62.0909 57.0719 60.0115L68.6968 39.8737C69.8992 37.7943 69.8963 35.2113 68.6968 33.1319L57.0691 12.9942C55.8695 10.9148 53.6317 9.62187 51.2298 9.62187L27.9771 9.62187C25.5752 9.62187 23.3374 10.9148 22.1378 12.9942L10.5129 33.1319C9.91317 34.173 9.61328 35.3386 9.61328 36.5042L9.61328 36.5014Z" fill="#FFA63D"/>
<path d="M45.3141 23.9625L33.8986 23.9625C32.9509 23.9625 32.0767 24.469 31.6014 25.2894L25.895 35.1744C25.4225 35.9948 25.4225 37.0048 25.895 37.8253L31.6014 47.7102C32.0738 48.5307 32.9509 49.0371 33.8986 49.0371L45.3141 49.0371C46.2619 49.0371 47.1361 48.5307 47.6114 47.7102L53.3178 37.8253C53.7902 37.0048 53.7902 35.9948 53.3178 35.1744L47.6114 25.2894C47.1389 24.469 46.2619 23.9625 45.3141 23.9625Z" fill="#FFA63D"/>
</g>
<g clip-path="url(#clip1_503_107)">
<path d="M174.84 49.7127C174.84 45.8692 174.84 42.1225 174.84 38.3758C174.84 37.3041 174.828 36.2325 174.873 35.1608C174.917 34.0972 175.541 33.3479 176.577 33.2592C177.673 33.1666 178.788 33.1625 179.888 33.2512C180.952 33.3398 181.681 34.1214 181.689 35.2051C181.721 39.8906 181.738 44.58 181.665 49.2655C181.653 49.9383 181.274 50.7118 180.835 51.2476C179.647 52.694 178.341 54.0436 177.068 55.4255C176.347 56.2111 175.445 56.5173 174.369 56.5132C166.823 56.4931 159.281 56.4891 151.735 56.5132C150.132 56.5173 149.048 55.8928 148.246 54.4666C144.721 48.2019 141.148 41.9654 137.55 35.7409C136.728 34.3148 136.716 33.0377 137.55 31.6034C141.184 25.3669 144.782 19.1022 148.339 12.8213C149.161 11.375 150.277 10.7425 151.925 10.7506C159.535 10.7828 167.145 10.7627 174.76 10.7667C176.955 10.7667 177.648 11.516 177.709 13.7278C177.781 16.3989 177.564 17.5148 174.047 17.4544C167.476 17.3416 160.905 17.4343 154.33 17.4061C153.637 17.4061 153.27 17.6236 152.932 18.2199C150.112 23.1954 147.267 28.1508 144.403 33.0981C144.113 33.6017 144.109 33.9522 144.403 34.4558C147.271 39.3265 150.1 44.2175 152.976 49.0802C153.17 49.4105 153.657 49.7691 154.012 49.7731C160.752 49.8134 167.492 49.8013 174.232 49.7973C174.393 49.7973 174.554 49.757 174.836 49.7167L174.84 49.7127Z" fill="#FFA63D"/>
<path d="M273.066 41.9453C273.066 36.1882 273.066 30.4311 273.066 24.67C273.066 22.6194 273.855 21.8217 275.922 21.8176C283.198 21.8136 290.47 21.8176 297.746 21.8096C299.285 21.8096 300.417 22.3857 301.215 23.7555C303.672 27.9776 306.162 32.1796 308.696 36.3574C309.574 37.8078 309.582 39.1171 308.708 40.5675C306.202 44.7211 303.729 48.8949 301.307 53.0969C300.481 54.5311 299.373 55.1919 297.718 55.1637C294.535 55.1113 291.348 55.1032 288.165 55.1677C286.695 55.1959 285.567 54.6842 284.656 53.5804C284.338 53.1936 284.016 52.8068 283.689 52.4241C283.013 51.6345 281.615 51.1913 280.724 51.6304C280.414 51.7835 280.156 52.3556 280.148 52.7464C280.096 54.9864 280.128 57.2304 280.12 59.4744C280.112 61.3357 279.435 62.0206 277.598 62.0448C276.893 62.0528 276.188 62.0569 275.487 62.0448C273.896 62.0126 273.086 61.2189 273.078 59.6195C273.062 55.9372 273.074 52.2549 273.074 48.5726C273.074 46.3648 273.074 44.1531 273.074 41.9453H273.066ZM280.152 48.5122C280.334 48.5605 280.426 48.6048 280.523 48.6089C285.784 48.6169 291.046 48.633 296.304 48.5928C296.63 48.5928 297.069 48.2382 297.262 47.928C299.087 45.0072 300.852 42.0541 302.673 39.1292C302.991 38.6216 302.947 38.2751 302.649 37.7957C300.86 34.9312 299.087 32.0587 297.355 29.1621C297.017 28.598 296.65 28.4087 296.001 28.4127C291.042 28.4409 286.083 28.4288 281.123 28.4288C280.805 28.4288 280.491 28.4288 280.152 28.4288V48.5122Z" fill="#FFA63D"/>
<path d="M247.459 56.5054C244.006 56.5054 240.55 56.5134 237.097 56.5054C234.881 56.5014 234.208 55.8205 234.204 53.6369C234.204 53.2703 234.2 52.8997 234.208 52.533C234.245 51.1713 234.829 50.4945 236.154 50.3011C236.581 50.2407 237.02 50.2205 237.455 50.2205C243.591 50.2165 249.731 50.2004 255.867 50.2366C256.64 50.2407 257.14 50.0473 257.45 49.3342C257.579 49.032 257.752 48.7218 257.982 48.4882C259.376 47.0338 259.094 45.7325 258.067 44.0968C257.188 42.7029 256.334 42.1832 254.69 42.2275C249.965 42.3524 245.235 42.2396 240.505 42.2879C238.934 42.304 237.834 41.7199 237.008 40.3944C235.558 38.0658 234.063 35.7653 232.544 33.481C231.799 32.357 231.831 31.3337 232.593 30.2339C234.156 27.9778 235.695 25.7055 237.21 23.4172C237.947 22.3012 238.974 21.8218 240.264 21.8218C246.935 21.8178 253.611 21.8097 260.282 21.8218C262.116 21.8218 262.889 22.6115 262.962 24.4566C262.974 24.7225 262.966 24.9924 262.962 25.2583C262.937 27.3815 262.236 28.0986 260.125 28.1026C254.223 28.1107 248.321 28.1147 242.419 28.0946C241.75 28.0946 241.307 28.2356 240.973 28.8762C240.405 29.972 239.252 31.0114 239.248 32.079C239.24 33.1467 240.368 34.2022 240.94 35.294C241.259 35.9023 241.657 36.1158 242.358 36.1118C247.455 36.0796 252.555 36.1239 257.652 36.0796C259.291 36.0635 260.456 36.6799 261.322 38.0617C262.712 40.2695 264.146 42.4531 265.621 44.6044C266.515 45.9098 266.523 47.0862 265.588 48.3834C264.061 50.4985 262.591 52.6579 261.149 54.8335C260.367 56.0139 259.316 56.5134 257.934 56.5054C254.445 56.4852 250.96 56.4973 247.471 56.5014L247.459 56.5054Z" fill="#FFA63D"/>
<path d="M222.924 50.1559C223.681 50.2043 224.31 50.2405 224.938 50.2929C225.168 50.3131 225.418 50.3372 225.623 50.4339C227.371 51.28 226.948 52.8915 226.92 54.3136C226.896 55.4981 226.231 56.3199 225.132 56.3884C223.431 56.4972 221.711 56.5254 220.019 56.3602C219.342 56.2958 218.677 55.6794 218.089 55.2161C217.461 54.7205 216.949 54.084 216.353 53.5441C215.539 52.8069 214.761 52.8069 213.932 53.524C213.529 53.8745 213.11 54.229 212.779 54.644C211.611 56.0943 210.132 56.5899 208.271 56.5375C204.484 56.4287 200.693 56.4851 196.906 56.5174C195.714 56.5294 194.759 56.1467 193.969 55.2644C192.849 54.0195 191.701 52.7988 190.581 51.558C189.856 50.7562 189.509 49.8216 189.517 48.7217C189.541 45.9096 189.517 43.0976 189.529 40.2855C189.537 38.5854 190.263 37.8602 191.979 37.8279C192.918 37.8118 193.86 37.7997 194.795 37.8642C195.77 37.9327 196.447 38.4725 196.592 39.4515C196.721 40.3056 196.729 41.1839 196.737 42.0501C196.753 44.4271 196.757 46.804 196.737 49.181C196.729 49.89 196.979 50.2204 197.724 50.2204C203.594 50.2043 209.46 50.2083 215.33 50.2043C215.426 50.2043 215.523 50.168 215.688 50.1358V28.2355C215.362 28.2355 215.007 28.2355 214.653 28.2355C208.682 28.2355 202.715 28.2355 196.745 28.2355C194.755 28.2355 194.025 27.5022 194.001 25.512C193.965 22.3736 194.509 21.8217 197.639 21.8217C203.574 21.8217 209.512 21.8378 215.446 21.8096C216.675 21.8056 217.646 22.2004 218.452 23.131C219.35 24.1705 220.241 25.226 221.232 26.1687C222.489 27.3653 222.96 28.7632 222.944 30.4795C222.896 36.6072 222.924 42.735 222.924 48.8627V50.16V50.1559Z" fill="#FFA63D"/>
</g>
<defs>
<clipPath id="clip0_503_107">
<rect width="73" height="106.372" fill="white" transform="translate(0 73) rotate(-90)"/>
</clipPath>
<clipPath id="clip1_503_107">
<rect width="172.431" height="51.3062" fill="white" transform="translate(136.93 10.7505)"/>
</clipPath>
</defs>
</svg>
