<svg width="35" height="67" viewBox="0 0 35 67" fill="none" xmlns="http://www.w3.org/2000/svg">
<path d="M2.31953 2.7C5.71953 0.199998 10.3195 5 13.5195 7.2L21.5195 12.7C24.5195 14.8 27.3195 16.5 27.5195 16.5C27.7195 16.5 29.4195 17.7 31.1195 19.1C34.0195 21.4 34.3195 21.8 33.4195 23.6C33.0195 24.7 32.1195 25.6 31.7195 25.6C31.2195 25.6 28.3195 23.8 25.2195 21.7L13.4195 13.7C7.91953 10 5.71953 5.4 5.71953 16.2C5.71953 21.3 6.01953 22.5 7.21953 22.9C10.9195 24.3 22.4195 33.8 23.3195 33.8C23.9195 33.8 33.4195 40.2 33.9195 41C34.1195 41.3 33.6195 42.4 32.8195 43.5L31.4195 45.4L19.5195 37.5C13.0195 33.2 7.21953 29.7 6.71953 29.7C6.01953 29.7 5.71953 35.1 5.51953 48.3L5.31953 67H1.21953L1.01953 35.4C0.819531 6 0.919531 3.79999 2.31953 2.7Z" fill="white"/>
</svg>
