<svg width="72" height="45" viewBox="0 0 72 45" fill="none" xmlns="http://www.w3.org/2000/svg">
<g clip-path="url(#clip0_678_282)">
<mask id="mask0_678_282" style="mask-type:luminance" maskUnits="userSpaceOnUse" x="0" y="0" width="72" height="45">
<path d="M71.7483 0H0.895508V45H71.7483V0Z" fill="white"/>
</mask>
<g mask="url(#mask0_678_282)">
<path d="M60.8754 4.00726C56.3595 2.30839 51.5168 1.05673 46.4535 0.33986C46.3613 0.326025 46.2692 0.3606 46.2217 0.429753C45.5989 1.33794 44.909 2.52275 44.426 3.45401C38.9801 2.78555 33.5621 2.78555 28.2279 3.45401C27.7447 2.50205 27.0298 1.33794 26.4042 0.429753C26.3567 0.362908 26.2646 0.328332 26.1724 0.33986C21.1119 1.05444 16.2693 2.3061 11.7506 4.00726C11.7114 4.02109 11.6779 4.04416 11.6556 4.07411C2.47019 15.3253 -0.0460967 26.2999 1.18831 37.1384C1.19389 37.1914 1.2302 37.2421 1.28047 37.2744C7.34078 40.9233 13.2112 43.1385 18.9726 44.6068C19.0649 44.6299 19.1625 44.6023 19.2212 44.54C20.5841 43.0141 21.799 41.4051 22.8406 39.7131C22.9021 39.614 22.8434 39.4965 22.7178 39.4573C20.7908 38.858 18.9559 38.1272 17.1908 37.2974C17.0512 37.2306 17.0401 37.0669 17.1685 36.9885C17.5399 36.7603 17.9115 36.5229 18.2661 36.2831C18.3303 36.2394 18.4197 36.2301 18.4951 36.2578C30.0906 40.5983 42.6442 40.5983 54.1029 36.2578C54.1783 36.2278 54.2677 36.2371 54.3347 36.2809C54.6894 36.5206 55.0609 36.7603 55.4351 36.9885C55.5635 37.0669 55.5551 37.2306 55.4155 37.2974C53.6505 38.1434 51.8156 38.858 49.8858 39.455C49.7602 39.4942 49.7043 39.614 49.7658 39.7131C50.8298 41.4028 52.0446 43.0117 53.3823 44.5377C53.4382 44.6023 53.5387 44.6299 53.6309 44.6068C59.4203 43.1385 65.2907 40.9233 71.351 37.2744C71.4041 37.2421 71.4376 37.1937 71.4432 37.1407C72.9205 24.6101 68.9688 13.7255 60.9675 4.0764C60.9479 4.04416 60.9145 4.02109 60.8754 4.00726ZM24.5722 30.5389C21.0812 30.5389 18.2046 27.9111 18.2046 24.6839C18.2046 21.4568 21.0254 18.829 24.5722 18.829C28.1469 18.829 30.9956 21.4799 30.9397 24.6839C30.9397 27.9111 28.1189 30.5389 24.5722 30.5389ZM48.1152 30.5389C44.6242 30.5389 41.7477 27.9111 41.7477 24.6839C41.7477 21.4568 44.5684 18.829 48.1152 18.829C51.69 18.829 54.5385 21.4799 54.4828 24.6839C54.4828 27.9111 51.69 30.5389 48.1152 30.5389Z" fill="#FFA63D"/>
</g>
</g>
<defs>
<clipPath id="clip0_678_282">
<rect width="70.8528" height="45" fill="white" transform="translate(0.895508)"/>
</clipPath>
</defs>
</svg>
