<svg width="81" height="93" viewBox="0 0 81 93" fill="none" xmlns="http://www.w3.org/2000/svg">
<rect x="46.537" width="11.519" height="11.519" transform="rotate(90 46.537 0)" fill="#373346"/>
<rect x="23.0381" width="46.0762" height="23.0381" transform="rotate(90 23.0381 0)" fill="#373346"/>
<rect x="23.0381" y="46.0762" width="46.0762" height="23.0381" transform="rotate(90 23.0381 46.0762)" fill="#373346"/>
<rect x="69.1143" y="23.0381" width="23.0381" height="11.519" transform="rotate(90 69.1143 23.0381)" fill="#373346"/>
<rect x="57.5952" y="69.1143" width="23.0381" height="11.519" transform="rotate(90 57.5952 69.1143)" fill="#373346"/>
<rect x="69.1143" y="69.1143" width="23.0381" height="11.519" transform="rotate(90 69.1143 69.1143)" fill="#373346"/>
<rect x="34.5571" y="69.1143" width="23.0381" height="11.519" transform="rotate(90 34.5571 69.1143)" fill="#373346"/>
<rect x="80.6333" width="23.0381" height="11.519" transform="rotate(90 80.6333 0)" fill="#373346"/>
<rect x="57.5952" width="46.0762" height="11.519" transform="rotate(90 57.5952 0)" fill="#373346"/>
<rect x="46.0762" y="46.0762" width="46.0762" height="11.519" transform="rotate(90 46.0762 46.0762)" fill="#373346"/>
</svg>
