<svg width="227" height="55" viewBox="0 0 227 55" fill="none" xmlns="http://www.w3.org/2000/svg">
<g clip-path="url(#clip0_709_109)">
<path d="M79.1829 27.1715C79.1829 29.2775 78.6416 31.3835 77.5571 33.262L68.9036 48.2524C67.8084 50.1499 66.2332 51.6852 64.3841 52.7403C61.7537 54.2398 59.6204 53.0162 59.6204 49.9899C59.6204 48.6041 62.1686 45.601 62.7035 44.6722L71.357 29.6818C72.2521 28.1339 72.2521 26.2112 71.357 24.6633L62.7035 9.67283C62.1665 8.74409 59.6204 5.74095 59.6204 4.35521C59.6204 1.3289 61.7558 0.107429 64.3841 1.60479C66.2332 2.65989 67.8084 4.19305 68.9036 6.09265L77.5571 21.0831C78.6416 22.9616 79.1829 25.0676 79.1829 27.1736L79.1829 27.1715Z" fill="#FFA63D"/>
<path d="M58.9673 27.1715C58.9673 29.2775 58.426 31.3834 57.3414 33.262L48.6879 48.2524C46.5167 52.0074 42.4753 54.3408 38.1369 54.3408L20.8278 54.3408C16.4895 54.3408 12.4481 52.0074 10.2789 48.2503L1.62541 33.2599C-0.543758 29.5028 -0.543758 24.8359 1.62541 21.0788L10.2789 6.08842C12.4481 2.33134 16.4895 -0.00210262 20.8278 -0.00210281L38.1369 -0.00210357C42.4753 -0.00210375 46.5167 2.33133 48.6858 6.08841L57.3393 21.0788C58.4239 22.9574 58.9652 25.0634 58.9652 27.1694L58.9673 27.1715ZM7.15574 27.1715C7.15574 28.0391 7.37897 28.9068 7.82544 29.6818L16.4811 44.6722C17.374 46.2201 19.0398 47.1826 20.8278 47.1826L38.1369 47.1826C39.9249 47.1826 41.5908 46.2201 42.4837 44.6722L51.1372 29.6818C52.0322 28.1339 52.0301 26.2111 51.1372 24.6632L42.4816 9.67281C41.5886 8.12491 39.9228 7.16247 38.1348 7.16247L20.8257 7.16247C19.0377 7.16247 17.3719 8.12491 16.4789 9.67281L7.82544 24.6632C7.37897 25.4382 7.15574 26.3059 7.15574 27.1736L7.15574 27.1715Z" fill="#FFA63D"/>
<path d="M33.7315 17.8377L25.2338 17.8377C24.5283 17.8377 23.8776 18.2146 23.5238 18.8254L19.276 26.1837C18.9243 26.7944 18.9243 27.5463 19.276 28.157L23.5238 35.5153C23.8755 36.1261 24.5283 36.5031 25.2338 36.5031L33.7315 36.5031C34.437 36.5031 35.0877 36.1261 35.4415 35.5153L39.6893 28.157C40.041 27.5463 40.041 26.7944 39.6893 26.1837L35.4415 18.8254C35.0898 18.2146 34.437 17.8377 33.7315 17.8377Z" fill="#FFA63D"/>
</g>
<g clip-path="url(#clip1_709_109)">
<path d="M128.551 36.2384C128.551 33.3409 128.551 30.531 128.551 27.725C128.551 25.9857 129.033 25.5001 130.788 25.4802C131.548 25.4723 132.312 25.4882 133.073 25.5121C134.08 25.5399 134.621 26.121 134.629 27.0723C134.661 30.2802 134.677 33.4882 134.593 36.6921C134.577 37.317 134.203 38.0334 133.785 38.5349C130.915 41.9817 130.896 41.9658 126.454 41.9658C122.084 41.9658 117.71 41.9379 113.339 41.9817C111.962 41.9976 111.079 41.512 110.394 40.2782C107.986 35.92 105.499 31.6056 103.003 27.2951C102.406 26.2603 102.418 25.3688 103.019 24.3379C105.59 19.9161 108.125 15.4783 110.649 11.0325C111.174 10.1091 111.863 9.67928 112.965 9.68724C118.597 9.72704 124.225 9.70316 129.857 9.70714C131.313 9.70714 131.735 10.1211 131.763 11.5778C131.775 12.2385 131.783 12.8992 131.759 13.5599C131.715 14.8136 131.25 15.2753 129.98 15.2753C125.276 15.2832 120.575 15.2992 115.871 15.2594C115.138 15.2554 114.76 15.4862 114.41 16.1151C112.707 19.1638 110.967 22.1927 109.2 25.2056C108.902 25.7111 108.949 26.0573 109.228 26.531C110.999 29.5519 112.722 32.5966 114.51 35.6096C114.701 35.9319 115.182 36.2702 115.536 36.2742C119.708 36.318 123.883 36.3021 128.054 36.2981C128.181 36.2981 128.309 36.2702 128.551 36.2424V36.2384Z" fill="#FFA63D"/>
<path d="M200.086 31.6376C200.086 27.6058 200.086 23.57 200.086 19.5381C200.086 17.966 200.587 17.4605 202.159 17.4605C207.425 17.4566 212.691 17.4645 217.956 17.4526C219.051 17.4526 219.831 17.8625 220.396 18.8217C222.132 21.7789 223.891 24.7242 225.682 27.6496C226.338 28.7202 226.366 29.6953 225.702 30.7819C223.915 33.7112 222.155 36.6565 220.436 39.6256C219.835 40.6644 219.003 41.0903 217.837 41.0664C216.014 41.0346 214.191 40.9789 212.372 41.0824C210.792 41.1739 209.634 40.6684 208.731 39.3709C208.321 38.7858 207.935 38.0535 206.975 38.1052C206.331 38.1411 206.008 38.3082 206.028 39.0286C206.068 40.6804 206.044 42.3361 206.036 43.9878C206.028 45.3331 205.562 45.8585 204.225 45.942C203.433 45.9898 202.633 45.9938 201.841 45.9381C200.559 45.8465 200.09 45.3211 200.086 44.0356C200.078 39.9042 200.086 35.7689 200.086 31.6376ZM206.084 35.6734C209.483 35.6734 212.754 35.6893 216.03 35.6456C216.329 35.6456 216.719 35.3152 216.898 35.0326C217.976 33.3331 218.979 31.5898 220.062 29.8943C220.376 29.4008 220.36 29.0426 220.058 28.565C218.999 26.8933 217.964 25.2058 216.953 23.5063C216.647 22.9929 216.281 22.8217 215.68 22.8257C212.766 22.8615 209.853 22.8416 206.94 22.8456C206.653 22.8456 206.37 22.8854 206.084 22.9053V35.6774V35.6734Z" fill="#FFA63D"/>
<path d="M164.11 36.4854C164.253 36.5969 164.273 36.6327 164.301 36.6367C165.137 36.7959 166.378 36.3342 166.653 37.4088C166.951 38.575 166.856 39.8765 166.721 41.0944C166.685 41.4207 165.897 41.8586 165.423 41.9023C164.177 42.0178 162.904 42.0217 161.658 41.9103C161.121 41.8625 160.567 41.4924 160.118 41.1461C159.576 40.7242 159.147 40.1591 158.649 39.6695C158.04 39.0685 157.216 38.977 156.766 39.6536C155.322 41.8307 153.264 42.169 150.876 41.9939C149.065 41.8586 147.234 41.9421 145.415 41.978C144.488 41.9979 143.744 41.7113 143.127 41.0188C142.402 40.2028 141.555 39.4745 140.95 38.5829C140.496 37.9143 140.146 37.0506 140.094 36.2546C139.97 34.38 140.046 32.4894 140.058 30.6068C140.066 29.3213 140.591 28.7919 141.849 28.776C142.577 28.7641 143.306 28.772 144.034 28.776C145.463 28.784 145.984 29.2974 146 30.7621C146.016 32.4496 146.02 34.1332 145.996 35.8208C145.988 36.3939 146.167 36.6884 146.776 36.6884C150.287 36.6805 153.797 36.6884 157.308 36.6884C157.535 36.6884 157.761 36.6645 158.064 36.6526V22.8337C157.742 22.8337 157.391 22.8337 157.045 22.8337C153.105 22.8337 149.164 22.8337 145.224 22.8337C143.756 22.8337 143.27 22.3482 143.25 20.8835C143.198 17.592 143.318 17.4726 146.585 17.4726C150.657 17.4726 154.733 17.4845 158.804 17.4606C159.656 17.4566 160.345 17.6954 160.914 18.3323C161.706 19.2198 162.621 20.0198 163.298 20.987C163.74 21.6158 164.062 22.4755 164.074 23.2357C164.146 27.6616 164.11 32.0914 164.11 36.4974V36.4854Z" fill="#FFA63D"/>
<path d="M181.702 41.9619C179.25 41.9619 176.802 41.9699 174.35 41.9619C172.631 41.9539 172.237 41.5559 172.217 39.8723C172.181 36.9669 172.297 36.8515 175.19 36.8515C179.198 36.8515 183.202 36.8515 187.21 36.8515C188.531 36.8515 189.558 34.9251 189.021 33.7311C188.44 32.4415 187.616 32.0515 186.207 32.1032C182.936 32.2266 179.652 32.1152 176.376 32.1589C175.429 32.1709 174.792 31.8007 174.311 31.0604C173.208 29.3769 172.122 27.6813 171.019 25.9978C170.514 25.2256 170.486 24.4813 171.007 23.6973C172.134 21.9898 173.236 20.2664 174.342 18.547C174.812 17.8187 175.493 17.4684 176.34 17.4645C181.208 17.4565 186.076 17.4485 190.943 17.4645C192.098 17.4684 192.671 18.0177 192.703 19.1639C192.782 22.1132 192.79 22.6943 189.515 22.6187C185.909 22.5351 182.295 22.6505 178.689 22.5749C177.339 22.547 177.339 23.7092 176.739 24.35C176.249 24.8674 176.711 25.2296 176.878 25.6634C177.355 26.9132 178.211 27.2674 179.552 27.2236C182.828 27.1122 186.108 27.2037 189.383 27.1759C190.342 27.1679 191.047 27.5261 191.556 28.3022C192.695 30.0415 193.809 31.7967 194.951 33.5321C195.425 34.2525 195.409 34.9251 194.935 35.6415C193.773 37.4047 192.643 39.1878 191.497 40.9629C190.967 41.7788 190.159 41.9659 189.256 41.9619C186.74 41.9539 184.221 41.9619 181.706 41.9619H181.702Z" fill="#FFA63D"/>
</g>
<defs>
<clipPath id="clip0_709_109">
<rect width="54.3408" height="79.1831" fill="white" transform="translate(0 54.3408) rotate(-90)"/>
</clipPath>
<clipPath id="clip1_709_109">
<rect width="123.622" height="36.2904" fill="white" transform="translate(102.562 9.68744)"/>
</clipPath>
</defs>
</svg>
