<svg width="278" height="104" viewBox="0 0 278 104" fill="none" xmlns="http://www.w3.org/2000/svg">
<path d="M121.4 40.7V52H125.9V40.6C125.9 38.2 127 36.7 129 36.7C131 36.7 132.2 38.1 132.2 40.7V52H136.7V40.7C136.7 38.1 137.9 36.7 139.9 36.7C141.9 36.7 143 38.1 143 40.6V52H147.5V40.7C147.5 35.6 144.7 32.6 140.2 32.6C137.5 32.6 135.5 33.7 134.4 35.4C133.3 33.7 131.3 32.6 128.6 32.6C124.2 32.5 121.4 35.5 121.4 40.7ZM160.3 52.4C162.8 52.4 165.1 51.5 166.5 49.7V52H170.5V33H166.5V35.3C165.1 33.6 162.8 32.6 160.3 32.6C155.1 32.6 150.8 36.6 150.8 42.5C150.8 48.3 155.1 52.4 160.3 52.4ZM155.3 42.5C155.3 39 157.7 36.7 160.9 36.7C163.9 36.7 166.3 38.8 166.3 42.5C166.3 46.1 163.9 48.3 160.9 48.3C157.6 48.3 155.3 45.9 155.3 42.5ZM174.6 40.7V52H179.1V40.8C179.1 38.1 180.3 36.7 182.6 36.7C184.8 36.7 186.1 38.1 186.1 40.8V52H190.6V40.7C190.6 35.6 187.6 32.6 182.7 32.6C177.6 32.5 174.6 35.6 174.6 40.7ZM198.6 59.2H202.7C209.3 59.2 213.4 56.1 213.4 49.8V33H209.4V35.3C208 33.6 205.7 32.6 203.2 32.6C198 32.6 193.8 36.5 193.8 42.2C193.8 47.9 198 51.7 203.3 51.7C205.8 51.7 207.8 50.9 209.1 49.4V50.2C209.1 53.7 206.8 55.2 202.9 55.2H198.7V59.2H198.6ZM198.2 42.2C198.2 38.9 200.5 36.7 203.7 36.7C206.8 36.7 209.2 38.8 209.2 42.2C209.2 45.7 206.8 47.7 203.7 47.7C200.5 47.7 198.2 45.4 198.2 42.2ZM226.3 52.4C228.8 52.4 231.1 51.5 232.5 49.7V52H236.5V33H232.5V35.3C231.1 33.6 228.8 32.6 226.3 32.6C221.1 32.6 216.8 36.6 216.8 42.5C216.8 48.3 221.1 52.4 226.3 52.4ZM221.3 42.5C221.3 39 223.7 36.7 226.9 36.7C229.9 36.7 232.3 38.8 232.3 42.5C232.3 46.1 229.9 48.3 226.9 48.3C223.7 48.3 221.3 45.9 221.3 42.5ZM242.1 52H246.6V37H248.9V33H246.6V26.4L242.1 27.9V33H239.8V37H242.1V52ZM260.5 52.4C263 52.4 265.3 51.5 266.7 49.7V52H270.7V33H266.7V35.3C265.3 33.6 263 32.6 260.5 32.6C255.3 32.6 251 36.6 251 42.5C251 48.3 255.3 52.4 260.5 52.4ZM255.5 42.5C255.5 39 257.9 36.7 261.1 36.7C264.1 36.7 266.5 38.8 266.5 42.5C266.5 46.1 264.1 48.3 261.1 48.3C257.9 48.3 255.5 45.9 255.5 42.5Z" fill="white"/>
<path d="M1.60993 51.146V37.11H3.94193V38.474C4.82193 37.462 6.16393 36.89 7.68193 36.89C10.6739 36.89 12.7199 39.42 12.7199 42.544C12.7199 45.69 10.6739 48.22 7.68193 48.22C6.20793 48.22 4.90993 47.626 4.05193 46.614V51.146H1.60993ZM7.06593 45.866C8.91393 45.866 10.2339 44.458 10.2339 42.544C10.2339 40.63 8.91393 39.244 7.06593 39.244C5.34993 39.244 4.05193 40.608 4.05193 42.544C4.05193 44.458 5.32793 45.866 7.06593 45.866ZM14.8013 48V37.11H17.2433V39.266C17.6613 38.166 18.8493 36.89 21.1813 36.89V39.552C18.7833 39.552 17.2433 40.696 17.2433 43.556V48H14.8013ZM28.2291 48.22C25.1271 48.22 22.3551 46.152 22.3551 42.566C22.3551 39.442 24.7971 36.89 27.9651 36.89C30.8691 36.89 33.2011 39.42 33.2011 42.478C33.2011 42.94 33.1351 43.424 33.1351 43.424H24.8851C25.2371 45.162 26.6451 46.064 28.2731 46.064C29.3731 46.064 30.5171 45.734 31.3971 45.118L32.3651 46.922C31.1331 47.758 29.6811 48.22 28.2291 48.22ZM24.8631 41.62H30.8251C30.5831 40.058 29.3291 39.024 27.8331 39.024C26.4251 39.024 25.1931 40.058 24.8631 41.62ZM38.3427 48.022L33.8547 37.11H36.2967L38.5187 42.61C39.0907 44.018 39.5307 45.536 39.5307 45.536C39.5307 45.536 39.9927 43.996 40.5427 42.632L42.7427 37.11H45.1847L40.6967 48.022H38.3427ZM46.5982 48V37.11H49.0402V48H46.5982ZM47.8082 35.526C46.9942 35.526 46.3342 34.866 46.3342 34.052C46.3342 33.238 46.9942 32.556 47.8082 32.556C48.6222 32.556 49.3042 33.238 49.3042 34.052C49.3042 34.866 48.6222 35.526 47.8082 35.526ZM56.9086 48.22C53.6966 48.22 51.1226 45.712 51.1226 42.566C51.1226 39.398 53.6966 36.89 56.9086 36.89C60.1206 36.89 62.6946 39.398 62.6946 42.566C62.6946 45.712 60.1206 48.22 56.9086 48.22ZM56.9086 45.866C58.7786 45.866 60.2086 44.458 60.2086 42.566C60.2086 40.652 58.7786 39.244 56.9086 39.244C55.0386 39.244 53.6086 40.652 53.6086 42.566C53.6086 44.458 55.0386 45.866 56.9086 45.866ZM68.58 48.22C65.698 48.22 64.62 46.592 64.62 43.732V37.11H67.062V43.38C67.062 45.118 67.832 45.866 69.35 45.866C71.044 45.866 71.946 44.458 71.946 42.896V37.11H74.388V48H72.078V46.328C71.418 47.516 69.9 48.22 68.58 48.22ZM80.6542 48.22C78.4102 48.22 76.8702 47.208 76.2762 46.636L77.2002 44.634C77.9042 45.206 79.0262 45.932 80.6542 45.932C81.6442 45.932 82.8102 45.558 82.8102 44.788C82.8102 43.996 81.7102 43.798 80.6322 43.49C78.5642 42.918 76.8042 42.302 76.8042 40.168C76.8042 38.034 78.9822 36.89 80.8962 36.89C82.5242 36.89 83.6022 37.308 84.7902 38.012L83.8882 39.992C82.9202 39.442 81.9962 39.178 80.9182 39.178C80.1042 39.178 79.2902 39.552 79.2902 40.124C79.2902 40.872 80.1922 41.048 81.1602 41.246C83.1842 41.686 85.2962 42.5 85.2962 44.744C85.2962 47.296 82.6782 48.22 80.6542 48.22ZM87.2466 48V33.524H89.6886V48H87.2466ZM93.1791 51.234V48.946C94.4771 48.946 95.0271 48.484 95.5771 47.384L95.7971 46.944L91.0891 37.11H93.5971L96.2151 42.918C96.5451 43.644 96.9191 44.634 96.9191 44.634C96.9191 44.634 97.4031 43.358 97.6231 42.808L99.9771 37.11H102.441L97.4691 48.484C96.3471 51.014 94.4551 51.234 93.1791 51.234Z" fill="white"/>
</svg>
